HIERARCHY
ROOT joint_Root
{
	OFFSET 0.0 0.0 0.0
	CHANNELS 6 Xposition Yposition Zposition Zrotation Xrotation Yrotation 
	JOINT Hips
	{
		OFFSET -0.726466 93.3139 -2.00062
		CHANNELS 6 Xposition Yposition Zposition Zrotation Xrotation Yrotation 
		JOINT Spine
		{
			OFFSET 15.7357 0.0 0.0
			CHANNELS 6 Xposition Yposition Zposition Zrotation Xrotation Yrotation 
			JOINT Chest
			{
				OFFSET 8.98455 -0.406207 0.0
				CHANNELS 6 Xposition Yposition Zposition Zrotation Xrotation Yrotation 
				JOINT Neck
				{
					OFFSET 16.3773 0.0 0.0
					CHANNELS 6 Xposition Yposition Zposition Zrotation Xrotation Yrotation 
					JOINT Head
					{
						OFFSET 6.45672 0.0 0.0
						CHANNELS 6 Xposition Yposition Zposition Zrotation Xrotation Yrotation 
						End Site
						{
							OFFSET 0.0 0.0 0.0
						}
					}
				}
				JOINT Shoulder_L
				{
					OFFSET 12.9942 -0.242716 4.98039
					CHANNELS 6 Xposition Yposition Zposition Zrotation Xrotation Yrotation 
					JOINT UpperArm_L
					{
						OFFSET 5.34809 0.0 0.0
						CHANNELS 6 Xposition Yposition Zposition Zrotation Xrotation Yrotation 
						JOINT LowerArm_L
						{
							OFFSET 24.3286 1.87007e-05 0.0
							CHANNELS 6 Xposition Yposition Zposition Zrotation Xrotation Yrotation 
							JOINT Hand_L
							{
								OFFSET 22.2916 0.0 0.0
								CHANNELS 6 Xposition Yposition Zposition Zrotation Xrotation Yrotation 
								End Site
								{
									OFFSET 0.0 0.0 0.0
								}
							}
						}
					}
				}
				JOINT Shoulder_R
				{
					OFFSET 12.9945 -0.242716 -4.98039
					CHANNELS 6 Xposition Yposition Zposition Zrotation Xrotation Yrotation 
					JOINT UpperArm_R
					{
						OFFSET -5.34813 0.0 0.0
						CHANNELS 6 Xposition Yposition Zposition Zrotation Xrotation Yrotation 
						JOINT LowerArm_R
						{
							OFFSET -24.3289 0.000322201 0.0
							CHANNELS 6 Xposition Yposition Zposition Zrotation Xrotation Yrotation 
							JOINT Hand_R
							{
								OFFSET -22.2915 -0.000108084 0.0
								CHANNELS 6 Xposition Yposition Zposition Zrotation Xrotation Yrotation 
								End Site
								{
									OFFSET 0.0 0.0 0.0
								}
							}
						}
					}
				}
			}
		}
		JOINT UpperLeg_L
		{
			OFFSET -2.19248 -6.46944 0.0
			CHANNELS 6 Xposition Yposition Zposition Zrotation Xrotation Yrotation 
			JOINT LowerLeg_L
			{
				OFFSET 39.0811 0.0 -1.23785e-05
				CHANNELS 6 Xposition Yposition Zposition Zrotation Xrotation Yrotation 
				JOINT Foot_L
				{
					OFFSET 40.9854 0.0 -1.26872e-05
					CHANNELS 6 Xposition Yposition Zposition Zrotation Xrotation Yrotation 
					JOINT Toes_L
					{
						OFFSET 11.7543 0.0 0.0
						CHANNELS 6 Xposition Yposition Zposition Zrotation Xrotation Yrotation 
						End Site
						{
							OFFSET 0.0 0.0 0.0
						}
					}
				}
			}
		}
		JOINT UpperLeg_R
		{
			OFFSET -2.19251 6.46944 0.0
			CHANNELS 6 Xposition Yposition Zposition Zrotation Xrotation Yrotation 
			JOINT LowerLeg_R
			{
				OFFSET -39.0811 -0.00228153 -0.0401928
				CHANNELS 6 Xposition Yposition Zposition Zrotation Xrotation Yrotation 
				JOINT Foot_R
				{
					OFFSET -40.9854 0.0 0.0
					CHANNELS 6 Xposition Yposition Zposition Zrotation Xrotation Yrotation 
					JOINT Toes_R
					{
						OFFSET -11.7543 0.0 0.0
						CHANNELS 6 Xposition Yposition Zposition Zrotation Xrotation Yrotation 
						End Site
						{
							OFFSET 0.0 0.0 0.0
						}
					}
				}
			}
		}
	}
}
MOTION
Frames:	4
Frame Time:	0.0333333
0.000000 0.000000 0.000000 0.000000 0.000000 -0.000000 -0.859684 92.332200 -1.325240 88.128300 -1.124250 3.568710 15.735700 0.000005 -0.000001 84.659700 85.282000 -83.992800 8.984550 -0.406207 -0.000000 1.634930 -0.913410 1.345650 16.377300 -0.000001 -0.000001 2.667860 -2.136310 -0.235853 6.456720 -0.000001 -0.000000 4.681650 -2.678590 -1.466800 12.994200 -0.242716 4.980390 -90.297900 0.959351 -72.751400 5.348090 -0.000007 -0.000001 -66.115000 39.967100 -16.341400 24.328600 0.000019 0.000005 1.218610 2.815900 -23.411700 22.291600 -0.000001 0.000005 4.180830 5.512500 -7.046180 12.994500 -0.242716 -4.980390 88.173600 6.108210 -73.318200 -5.348130 -0.000001 -0.000004 -64.564600 41.788100 -16.803500 -24.328900 0.000322 -0.000009 1.980960 6.712610 -16.492000 -22.291500 -0.000108 -0.000004 8.162300 5.430860 -3.968580 -2.192480 -6.469440 -0.000000 -175.657000 -6.247880 -3.028310 39.081100 -0.000007 -0.000012 -0.099386 0.238317 22.637800 40.985400 -0.000006 -0.000013 -0.195604 3.536120 -66.246500 11.754300 -0.000000 0.000003 -0.000026 -0.000322 -16.590200 -2.192510 6.469440 -0.000001 179.943000 13.720500 -179.928000 -39.081100 -0.002282 -0.040193 -0.015220 0.053805 19.015300 -40.985400 0.000008 0.000006 4.138760 7.003310 -66.116800 -11.754300 -0.000006 -0.000006 -0.005926 -0.070164 -19.428600
0.000000 0.000000 0.000000 0.000000 0.000000 -0.000000 -0.868151 92.323300 -1.335710 88.111300 -1.140340 3.655220 15.735700 0.000005 -0.000001 84.878700 85.251100 -84.175800 8.984550 -0.406207 -0.000000 1.699850 -0.884526 1.417540 16.377300 -0.000001 -0.000001 2.612940 -2.173950 -0.143110 6.456720 -0.000001 -0.000000 4.698060 -2.644180 -1.583300 12.994200 -0.242716 4.980390 -90.403500 1.293410 -72.672500 5.348090 -0.000007 -0.000001 -66.036400 37.942100 -16.118200 24.328600 0.000019 0.000005 1.357230 2.885360 -25.204600 22.291600 -0.000001 0.000005 4.219570 5.530950 -7.836930 12.994500 -0.242716 -4.980390 88.191400 6.044220 -73.307100 -5.348130 -0.000001 -0.000004 -64.698700 41.662400 -16.729500 -24.328900 0.000322 -0.000009 1.958440 6.665760 -16.422500 -22.291500 -0.000108 -0.000004 8.151740 5.430600 -3.959630 -2.192480 -6.469440 -0.000000 -175.627000 -6.245180 -2.986670 39.081100 -0.000007 -0.000012 -0.097564 0.233029 22.718000 40.985400 -0.000006 -0.000013 -0.190086 3.563560 -66.281000 11.754300 -0.000000 0.000003 -0.000022 -0.000278 -16.588400 -2.192510 6.469440 -0.000001 179.947000 13.677500 -179.888000 -39.081100 -0.002282 -0.040193 -0.016689 0.057827 19.088800 -40.985400 0.000008 0.000006 4.155090 6.976540 -66.143400 -11.754300 -0.000006 -0.000006 -0.005755 -0.068596 -19.364700
0.000000 0.000000 0.000000 0.000000 0.000000 -0.000000 -0.897852 92.323200 -1.398920 88.118700 -1.008080 3.640890 15.735700 0.000005 -0.000001 85.509000 85.259200 -84.770600 8.984550 -0.406207 -0.000000 1.692130 -0.781139 1.487040 16.377300 -0.000001 -0.000001 2.559910 -2.304250 -0.078817 6.456720 -0.000001 -0.000000 4.717290 -2.851580 -1.690640 12.994200 -0.242716 4.980390 -90.538900 1.719850 -72.600400 5.348090 -0.000007 -0.000001 -64.597600 35.399200 -16.993600 24.328600 0.000019 0.000005 1.472540 2.708390 -28.547900 22.291600 -0.000001 0.000005 5.038720 5.542950 -8.376330 12.994500 -0.242716 -4.980390 88.234700 5.875000 -73.243000 -5.348130 -0.000001 -0.000004 -65.071000 41.383700 -16.463000 -24.328900 0.000322 -0.000009 1.989660 6.784950 -16.394200 -22.291500 -0.000108 -0.000004 8.159490 5.431280 -3.983020 -2.192480 -6.469440 -0.000000 -175.629000 -6.125790 -3.087130 39.081100 -0.000007 -0.000012 -0.098918 0.235834 22.755100 40.985400 -0.000006 -0.000013 -0.209803 3.560530 -66.239900 11.754300 -0.000000 0.000003 -0.000021 -0.000269 -16.588100 -2.192510 6.469440 -0.000001 179.956000 13.810700 -179.952000 -39.081100 -0.002282 -0.040193 -0.018451 0.062801 19.122200 -40.985400 0.000008 0.000006 4.127700 6.983190 -66.125100 -11.754300 -0.000006 -0.000006 -0.005622 -0.067362 -19.314400
0.000000 0.000000 0.000000 0.000000 0.000000 -0.000000 -0.962999 92.322700 -1.468930 88.138200 -0.662147 3.721660 15.735700 0.000005 -0.000001 86.156500 85.247300 -85.405100 8.984550 -0.406207 -0.000000 1.723080 -0.676410 1.511690 16.377300 -0.000001 -0.000001 2.605650 -2.485190 -0.055682 6.456720 -0.000001 -0.000000 4.743830 -3.200250 -1.743900 12.994200 -0.242716 4.980390 -90.645400 2.045730 -72.485400 5.348090 -0.000007 -0.000001 -61.809100 31.994000 -19.400700 24.328600 0.000019 0.000005 1.748370 2.693480 -33.004400 22.291600 -0.000001 0.000005 6.433130 5.562890 -9.327080 12.994500 -0.242716 -4.980390 88.272700 5.746040 -73.237800 -5.348130 -0.000001 -0.000004 -65.464700 41.197200 -16.084200 -24.328900 0.000322 -0.000009 1.976360 6.757390 -16.353000 -22.291500 -0.000108 -0.000004 8.116600 5.431000 -3.973430 -2.192480 -6.469440 -0.000000 -175.595000 -5.980240 -3.128810 39.081100 -0.000007 -0.000012 -0.098672 0.234791 22.794800 40.985400 -0.000006 -0.000013 -0.212860 3.769730 -66.175100 11.754300 -0.000000 0.000003 -0.000024 -0.000296 -16.589100 -2.192510 6.469440 -0.000001 179.956000 14.087600 -179.904000 -39.081100 -0.002282 -0.040193 -0.019329 0.065256 19.143100 -40.985400 0.000008 0.000006 4.065100 6.896680 -66.104400 -11.754300 -0.000006 -0.000006 -0.005868 -0.069634 -19.407000
